<?xml version="1.0" standalone="no"?>
<!DOCTYPE svg PUBLIC "-//W3C//DTD SVG 20010904//EN"
 "http://www.w3.org/TR/2001/REC-SVG-20010904/DTD/svg10.dtd">
<svg version="1.0" xmlns="http://www.w3.org/2000/svg"
 width="1713.000000pt" height="1713.000000pt" viewBox="0 0 1713.000000 1713.000000"
 preserveAspectRatio="xMidYMid meet">
<metadata>
Created by potrace 1.14, written by Peter Selinger 2001-2017
</metadata>
<g transform="translate(0.000000,1713.000000) scale(0.100000,-0.100000)"
fill="#000000" stroke="none">
<path d="M8353 12839 c-204 -24 -411 -84 -601 -174 -584 -279 -976 -833 -1053
-1490 -11 -97 -7 -398 7 -473 l6 -33 23 54 c46 113 163 237 283 300 207 108
441 114 650 17 45 -21 82 -41 82 -45 0 -3 -21 5 -47 19 -154 77 -351 83 -510
15 -193 -83 -323 -273 -323 -474 1 -140 48 -253 150 -355 112 -113 251 -170
417 -170 428 0 699 406 506 760 -13 25 -17 36 -7 25 27 -32 81 -156 93 -213
55 -262 -86 -540 -340 -668 -111 -55 -221 -77 -359 -71 -120 5 -196 24 -292
73 -27 13 -48 21 -48 17 0 -19 142 -196 229 -286 265 -274 590 -453 970 -535
118 -25 142 -27 376 -27 234 0 258 2 376 27 349 75 665 240 906 471 l72 70
-43 56 c-66 85 -129 186 -182 291 -26 52 -49 97 -50 99 -2 2 -28 -21 -58 -52
-135 -137 -305 -207 -503 -207 -122 0 -212 22 -322 76 -74 37 -110 62 -171
123 -85 85 -121 139 -156 239 -51 146 -39 306 32 452 49 99 169 220 269 272
124 64 203 83 345 83 134 0 219 -19 322 -71 26 -13 49 -24 51 -24 3 0 8 39 11
88 34 429 174 806 424 1138 l31 41 -52 50 c-293 283 -684 465 -1102 513 -104
11 -308 11 -412 -1z m498 -831 c154 -52 174 -240 39 -362 -143 -129 -359 -109
-416 39 -67 176 182 390 377 323z m-607 -346 c112 -148 357 -299 668 -411 149
-54 158 -65 81 -87 -229 -67 -617 57 -840 269 l-41 40 -189 -37 c-103 -20
-210 -42 -238 -50 l-50 -14 47 -21 c26 -12 99 -37 162 -57 274 -84 381 -154
444 -293 34 -76 42 -233 17 -348 -17 -77 -115 -356 -123 -349 -2 2 9 64 25
138 23 111 28 157 28 278 0 129 -3 150 -22 193 -60 129 -127 166 -401 222
-309 62 -442 137 -442 250 0 122 118 183 530 275 118 27 231 55 250 63 19 9
38 13 41 9 3 -4 27 -35 53 -70z m-433 -709 c13 -16 12 -17 -3 -4 -17 13 -22
21 -14 21 2 0 10 -8 17 -17z m94 -93 c10 -11 16 -20 13 -20 -3 0 -13 9 -23 20
-10 11 -16 20 -13 20 3 0 13 -9 23 -20z"/>
<path d="M5450 12831 c0 -7 -5 -9 -12 -5 -7 5 -8 3 -3 -5 5 -9 10 -10 18 -2 6
6 8 14 4 18 -4 3 -7 1 -7 -6z"/>
<path d="M5310 12820 c-18 -12 -2 -12 25 0 13 6 15 9 5 9 -8 0 -22 -4 -30 -9z"/>
<path d="M5230 12811 c-21 -4 -34 -12 -32 -20 1 -7 -2 -10 -7 -7 -5 4 -11 3
-14 -1 -2 -5 -2 -2 -1 5 4 14 -16 10 -101 -18 -33 -11 -49 -21 -47 -30 3 -12
1 -12 -8 -3 -17 16 -89 -7 -236 -77 -335 -159 -628 -430 -814 -754 -352 -612
-327 -1384 65 -1972 303 -455 789 -756 1329 -824 156 -20 462 -8 612 24 343
73 661 238 901 469 l72 69 -54 73 c-77 103 -136 204 -204 346 -322 671 -248
1487 190 2098 l60 84 -37 38 c-21 21 -42 35 -48 32 -6 -3 -8 -2 -3 2 4 5 -11
26 -34 47 -31 29 -47 37 -63 33 -15 -5 -17 -4 -7 3 9 7 10 12 2 16 -6 4 -11 4
-11 -1 0 -4 -7 3 -16 15 -8 12 -20 20 -25 17 -5 -4 -9 0 -9 8 0 21 -26 28 -40
11 -16 -18 -23 -18 -36 4 -10 15 -8 18 10 20 17 1 18 -1 6 -9 -10 -7 -11 -9
-2 -7 21 5 15 23 -9 24 -11 1 -25 6 -32 13 -6 6 -16 11 -22 11 -5 0 -3 -5 5
-10 11 -7 0 -10 -37 -10 -33 0 -53 4 -53 11 0 8 -17 10 -50 7 -38 -4 -50 -2
-50 8 0 8 -9 14 -20 14 -11 0 -20 6 -20 14 0 10 -12 12 -50 8 -33 -3 -50 -1
-50 7 0 7 -22 11 -59 11 -36 0 -61 5 -63 11 -2 7 -17 13 -33 15 -111 9 -215
31 -215 45 0 5 -31 9 -70 9 -38 0 -70 4 -70 9 0 14 -104 36 -215 45 -16 2 -31
8 -33 15 -2 6 -27 11 -62 11 -32 0 -60 4 -62 9 -5 14 -78 25 -78 12 0 -6 -5
-11 -11 -11 -6 0 -9 9 -6 20 3 11 4 19 4 19 -1 -1 -18 -5 -37 -8z m1430 -341
c0 -5 -5 -10 -11 -10 -5 0 -7 5 -4 10 3 6 8 10 11 10 2 0 4 -4 4 -10z m42 -4
c3 2 8 -2 11 -11 4 -8 3 -15 -1 -15 -11 1 -42 26 -42 35 0 4 6 2 13 -4 8 -6
16 -8 19 -5z m-17 -34 c-3 -3 -11 0 -18 7 -9 10 -8 11 6 5 10 -3 15 -9 12 -12z
m-525 -543 c98 -11 143 -19 138 -25 -3 -2 -76 -13 -164 -24 -189 -25 -377 -61
-494 -97 -372 -112 -505 -353 -391 -709 l33 -102 -20 -45 c-22 -49 -75 -94
-150 -127 -162 -72 -487 -124 -832 -135 l-175 -5 115 25 c492 106 767 221 801
335 10 31 8 51 -7 112 -22 89 -25 250 -5 328 74 295 314 452 735 479 125 9
290 5 416 -10z m-285 -413 c152 -90 101 -315 -91 -403 -133 -61 -268 -28 -322
77 -67 130 43 303 223 351 54 15 141 3 190 -25z m255 -732 c90 -22 194 -74
262 -130 32 -26 56 -50 53 -52 -2 -3 -32 7 -64 22 -121 54 -271 68 -439 41
-169 -28 -284 -71 -757 -285 -426 -192 -702 -234 -958 -145 -100 35 -172 81
-254 163 -82 82 -94 107 -30 64 123 -85 247 -122 405 -122 198 0 377 53 753
221 320 144 483 202 634 228 33 6 71 13 85 15 50 9 247 -3 310 -20z m-200
-424 c228 -28 418 -106 567 -232 74 -63 78 -74 11 -38 -139 75 -384 130 -581
130 -237 0 -459 -43 -1012 -195 -311 -85 -666 -158 -615 -127 36 22 657 284
775 327 321 117 619 163 855 135z"/>
<path d="M6413 12608 c-12 -21 -12 -35 3 -35 7 0 11 4 8 9 -6 10 9 11 22 1 5
-5 2 -1 -8 8 -9 9 -14 19 -11 23 4 3 4 6 0 6 -3 0 -9 -6 -14 -12z"/>
<path d="M9043 11070 c-204 -37 -382 -192 -437 -379 -22 -77 -21 -204 4 -283
53 -172 208 -314 395 -363 122 -31 292 -15 410 39 56 26 170 109 178 130 3 7
-10 60 -29 117 -58 175 -104 445 -104 615 l0 51 -57 26 c-32 14 -76 30 -98 36
-57 16 -201 22 -262 11z"/>
<path d="M9729 10523 c-13 -16 -12 -17 4 -4 16 13 21 21 13 21 -2 0 -10 -8
-17 -17z"/>
<path d="M9730 10485 c7 -8 9 -19 5 -25 -3 -5 -1 -10 4 -10 6 0 11 7 11 15 0
8 1 18 3 22 1 3 -6 7 -16 9 -14 2 -16 0 -7 -11z"/>
<path d="M9840 10480 c0 -5 -17 -10 -38 -10 -32 0 -39 -4 -48 -27 -12 -35 -7
-63 12 -63 8 0 14 -5 14 -11 0 -5 -5 -7 -11 -3 -14 8 -1 -38 13 -47 5 -3 9 -9
9 -13 -3 -20 0 -26 11 -20 7 4 8 3 4 -5 -9 -15 3 -53 15 -46 5 3 6 -1 3 -9 -3
-9 19 -62 51 -122 295 -559 826 -920 1460 -995 153 -18 411 -6 565 26 238 50
459 140 649 265 118 77 231 168 228 183 -1 6 4 11 11 12 19 0 132 127 125 139
-4 5 1 7 10 3 9 -3 19 -2 22 4 4 5 3 8 -2 7 -4 -2 -8 2 -8 7 0 6 7 9 15 8 12
-2 16 8 15 40 l-1 42 -82 3 c-52 2 -82 -1 -82 -8 0 -5 -18 -10 -40 -10 -33 0
-40 3 -40 20 0 17 -7 20 -40 20 -33 0 -40 3 -40 20 0 17 -7 20 -40 20 -22 0
-40 5 -40 10 0 6 -33 10 -80 10 -47 0 -80 4 -80 10 0 6 -33 10 -80 10 l-80 0
0 30 0 30 -80 0 c-54 0 -80 -4 -80 -12 0 -13 -230 -4 -239 10 -3 4 -20 8 -38
7 -18 0 -30 1 -28 4 3 2 0 10 -5 17 -6 6 -10 16 -9 20 5 27 -4 34 -41 34 -22
0 -40 -4 -40 -10 0 -5 -18 -10 -40 -10 -33 0 -40 3 -40 20 0 17 -7 20 -40 20
-33 0 -40 3 -40 20 0 17 -7 20 -40 20 -22 0 -40 5 -40 10 0 6 -33 10 -80 10
-47 0 -80 4 -80 10 0 6 -37 10 -92 10 -58 0 -88 -4 -79 -9 9 -6 0 -8 -27 -7
-24 1 -42 -2 -42 -8 0 -6 -4 -5 -9 3 -5 8 -14 10 -21 6 -9 -6 -11 -4 -6 6 4 8
-1 4 -12 -8 -11 -13 -24 -23 -30 -23 -11 0 -72 -30 -72 -35 0 -3 8 -2 18 1 13
5 14 4 3 -4 -8 -6 -20 -8 -27 -5 -7 2 -22 -5 -33 -16 -12 -12 -23 -21 -26 -21
-3 0 -10 0 -16 0 -6 0 -8 -7 -4 -17 4 -14 3 -15 -5 -7 -9 9 -30 2 -83 -28 -40
-21 -74 -39 -77 -39 -17 2 -39 -12 -34 -21 4 -7 2 -8 -5 -4 -6 4 -42 -4 -79
-18 -131 -50 -382 -98 -404 -78 -4 4 62 42 147 85 85 43 155 83 155 88 0 6 -6
7 -12 3 -7 -4 -9 -3 -5 1 12 13 38 15 30 2 -3 -6 9 -2 28 10 19 11 62 37 97
57 34 21 62 42 62 48 0 6 3 8 6 5 11 -11 45 13 38 26 -4 7 -4 9 1 5 4 -4 20
-1 36 7 31 16 48 53 29 65 -6 4 -10 20 -8 36 l3 29 -82 3 c-53 2 -83 -1 -83
-8 0 -5 -18 -10 -40 -10 -33 0 -40 3 -40 20 0 17 -7 20 -40 20 -33 0 -40 3
-40 20 0 17 -7 20 -40 20 -22 0 -40 5 -40 10 0 6 -33 10 -80 10 -47 0 -80 4
-80 10 0 6 -33 10 -80 10 l-80 0 0 30 0 30 -80 0 c-47 0 -80 -4 -80 -10z m-72
-85 c-3 -3 -9 2 -12 12 -6 14 -5 15 5 6 7 -7 10 -15 7 -18z m52 1 c-7 -7 -13
-7 -20 0 -6 6 -3 10 10 10 13 0 16 -4 10 -10z m340 4 c0 -5 -18 -10 -40 -10
-22 0 -40 5 -40 10 0 6 18 10 40 10 22 0 40 -4 40 -10z m570 -157 c0 -1 -9
-12 -21 -24 -19 -19 -20 -19 -15 -2 4 14 1 19 -14 20 -16 1 -18 -2 -11 -16 7
-13 6 -18 -4 -18 -7 0 -11 7 -7 15 3 9 1 13 -5 9 -5 -3 -10 -1 -10 6 0 8 16
13 44 13 24 1 43 -1 43 -3z m550 -83 c0 -5 -18 -10 -40 -10 -22 0 -40 5 -40
10 0 6 18 10 40 10 22 0 40 -4 40 -10z m-695 -20 c-3 -5 -13 -6 -21 -3 -12 4
-13 8 -3 14 15 9 32 2 24 -11z m356 -23 c-10 -9 -11 -8 -5 6 3 10 9 15 12 12
3 -3 0 -11 -7 -18z m1459 -197 c0 -5 -18 -10 -40 -10 -22 0 -40 5 -40 10 0 6
18 10 40 10 22 0 40 -4 40 -10z m223 -77 c-13 -2 -33 -2 -45 0 -13 2 -3 4 22
4 25 0 35 -2 23 -4z m285 -98 c-1 -13 -8 -27 -15 -29 -15 -6 -18 10 -3 19 6 3
10 11 10 16 0 6 -4 7 -10 4 -5 -3 -10 -1 -10 4 0 6 7 11 15 11 10 0 14 -9 13
-25z m-38 -60 c0 -2 -6 -8 -13 -14 -10 -8 -14 -7 -14 2 0 8 6 14 14 14 7 0 13
-1 13 -2z m-40 -40 c0 -2 -6 -8 -13 -14 -10 -8 -14 -7 -14 2 0 8 6 14 14 14 7
0 13 -1 13 -2z"/>
<path d="M10976 10432 c-3 -5 1 -9 9 -9 8 0 12 4 9 9 -3 4 -7 8 -9 8 -2 0 -6
-4 -9 -8z"/>
<path d="M10905 10350 c-3 -6 1 -7 9 -4 18 7 21 14 7 14 -6 0 -13 -4 -16 -10z"/>
<path d="M10745 10318 c4 -11 2 -18 -4 -18 -6 0 -11 -5 -11 -12 0 -8 6 -6 17
5 14 14 15 19 4 29 -10 11 -11 10 -6 -4z"/>
<path d="M10777 10295 c-9 -6 -17 -16 -17 -20 0 -5 9 0 20 10 11 10 20 13 20
8 0 -6 -7 -16 -15 -23 -8 -7 -15 -17 -15 -23 0 -6 7 -1 16 11 8 12 19 20 24
17 4 -3 14 3 21 13 7 9 10 14 5 10 -5 -4 -16 -3 -25 1 -10 6 -23 5 -34 -4z"/>
<path d="M11126 10271 c-4 -5 -2 -12 3 -15 5 -4 12 -2 15 3 4 5 2 12 -3 15 -5
4 -12 2 -15 -3z"/>
<path d="M11081 10241 c-11 -11 -22 -16 -26 -13 -3 4 -3 -1 1 -11 6 -16 -5
-23 -31 -17 -5 1 -6 -2 -2 -6 12 -13 37 -13 37 -1 0 8 3 7 9 -1 7 -11 9 -10
15 3 3 9 10 14 15 10 5 -3 13 0 17 7 4 7 4 10 0 6 -5 -4 -14 -2 -21 5 -10 9
-9 14 4 24 9 7 13 13 9 13 -5 0 -17 -9 -27 -19z"/>
<path d="M11903 10198 c1 -7 -4 -12 -11 -10 -8 1 -11 -2 -7 -8 5 -8 11 -8 21
1 7 6 11 15 8 20 -8 13 -14 11 -11 -3z"/>
<path d="M11849 10157 c6 -8 7 -18 3 -22 -4 -5 -1 -5 6 -1 10 6 10 11 1 22 -6
8 -14 14 -16 14 -3 0 0 -6 6 -13z"/>
<path d="M12036 10131 c-4 -5 -2 -12 3 -15 5 -4 12 -2 15 3 4 5 2 12 -3 15 -5
4 -12 2 -15 -3z"/>
<path d="M11773 10077 c-3 -6 -1 -7 5 -3 7 4 12 1 12 -9 0 -9 -4 -13 -10 -10
-5 3 -10 1 -10 -4 0 -15 13 -14 36 5 10 8 13 12 5 8 -10 -5 -13 -3 -9 8 7 16
-19 21 -29 5z"/>
<path d="M11905 10049 c-3 -5 1 -6 9 -3 9 3 16 1 16 -5 0 -6 -5 -11 -11 -11
-5 0 -7 -5 -3 -11 3 -6 9 -7 13 -3 9 13 31 16 31 5 0 -6 9 -9 20 -8 13 1 19 6
15 15 -3 7 -5 16 -5 18 0 3 -4 2 -10 -1 -5 -3 -10 -1 -10 6 0 7 -7 4 -16 -7
-11 -13 -14 -14 -11 -4 5 17 -28 25 -38 9z"/>
<path d="M11880 10030 c0 -5 -8 -7 -17 -3 -10 3 -15 3 -12 -1 4 -4 16 -8 27
-11 15 -2 19 0 15 11 -6 16 -13 19 -13 4z"/>
<path d="M12995 9820 c-4 -6 -11 -8 -16 -5 -5 3 -6 -1 -3 -10 4 -9 7 -15 8
-13 1 2 8 11 15 21 7 9 11 17 8 17 -3 0 -9 -5 -12 -10z"/>
<path d="M11892 8493 c-584 -65 -1138 -413 -1487 -933 -121 -180 -237 -467
-285 -700 -84 -412 -21 -812 173 -1102 250 -373 599 -572 1087 -619 639 -61
1328 231 1756 743 74 89 159 207 152 213 -1 2 -176 72 -387 155 l-384 153 -21
-29 c-35 -50 -149 -164 -209 -211 -68 -53 -202 -125 -281 -153 -151 -52 -351
-66 -498 -35 -190 39 -357 170 -441 346 -59 124 -72 180 -71 324 1 298 108
552 318 753 137 131 287 219 451 263 118 33 338 33 450 1 202 -58 357 -191
429 -366 l21 -54 420 144 c231 79 430 148 442 154 l23 9 -26 73 c-130 365
-410 643 -789 783 -98 37 -261 77 -360 90 -101 13 -362 12 -483 -2z"/>
<path d="M4146 8423 c-8 -42 -566 -3221 -566 -3227 0 -3 184 -6 409 -6 318 0
410 3 413 13 3 6 74 407 159 889 85 483 156 878 159 878 3 0 67 -105 144 -232
76 -128 314 -529 529 -890 l392 -658 383 0 c210 0 382 2 382 4 0 3 63 361 139
798 77 436 149 845 160 908 60 344 215 1228 241 1371 17 91 30 169 30 172 0 4
-184 7 -409 7 -318 0 -410 -3 -413 -12 -3 -7 -74 -408 -159 -890 -85 -483
-157 -878 -160 -878 -4 0 -244 401 -535 890 l-529 890 -382 0 -381 0 -6 -27z"/>
<path d="M7440 8383 c-37 -220 -551 -3143 -556 -3165 l-6 -28 431 0 c299 0
431 3 431 11 0 11 157 920 165 957 l5 22 258 0 257 0 195 -492 196 -493 473
-3 c450 -2 473 -1 469 16 -3 9 -106 271 -228 581 -208 524 -223 565 -206 575
471 275 744 730 723 1206 -11 250 -94 429 -280 606 -108 103 -206 163 -345
210 -185 63 -197 64 -1128 64 l-842 0 -12 -67z m1543 -736 c130 -60 192 -204
153 -356 -34 -133 -119 -235 -243 -294 l-68 -32 -387 -3 c-214 -2 -388 0 -388
3 0 9 108 642 116 678 l6 28 386 -3 c341 -3 391 -6 425 -21z"/>
<path d="M3465 4718 c-2 -7 -34 -186 -70 -398 -37 -212 -69 -395 -72 -407 l-5
-23 5059 0 5059 0 48 273 c26 149 58 332 72 405 13 73 24 140 24 148 0 12
-673 14 -5055 14 -4036 0 -5056 -3 -5060 -12z m6400 -150 c-2 -13 -21 -115
-40 -228 -20 -113 -38 -217 -41 -232 -5 -24 -10 -28 -40 -28 -20 0 -34 5 -34
13 0 6 19 121 42 255 l43 242 38 0 c34 0 37 -2 32 -22z m-1691 -14 c20 -19 20
-34 0 -62 -17 -25 -56 -29 -74 -7 -17 21 -4 64 23 75 31 12 34 12 51 -6z
m-3085 -21 c0 -16 -17 -122 -38 -238 l-37 -210 -42 -3 c-31 -2 -41 0 -37 10 2
7 20 110 40 228 20 118 38 221 40 228 3 6 20 12 40 12 32 0 35 -3 34 -27z
m5551 3 c0 -52 -6 -56 -94 -56 l-82 0 -34 -200 -35 -200 -37 0 c-30 0 -38 4
-38 18 0 9 14 91 30 182 17 91 30 173 30 183 0 15 -11 17 -81 17 l-81 0 7 33
c4 17 9 35 12 40 2 4 94 7 204 7 l199 0 0 -24z m-4838 -66 c-4 -29 -3 -30 35
-30 48 0 51 -2 45 -40 -4 -28 -7 -30 -51 -30 l-47 0 -17 -96 c-20 -110 -15
-124 40 -124 28 0 34 -3 29 -16 -3 -9 -6 -24 -6 -35 0 -16 -7 -19 -40 -19 -54
0 -98 24 -107 58 -6 24 8 154 23 210 5 19 2 22 -20 22 -19 0 -26 5 -26 19 0
35 12 51 36 51 19 0 26 7 31 30 5 27 9 30 43 30 35 0 36 -1 32 -30z m2075 0
c-6 -30 -6 -30 38 -30 38 0 45 -3 45 -19 0 -41 -11 -51 -55 -51 -50 0 -48 4
-66 -112 -14 -88 -7 -108 42 -108 30 0 33 -8 23 -47 -5 -20 -13 -23 -51 -23
-36 0 -50 6 -74 29 -34 34 -34 38 -14 151 19 110 19 110 -10 110 -23 0 -25 3
-19 28 10 39 12 42 40 42 18 0 24 5 24 23 0 32 7 37 48 37 33 0 34 -1 29 -30z
m-2584 -57 l-3 -22 37 24 c60 41 165 28 193 -24 14 -27 12 -89 -8 -206 l-17
-100 -38 -3 c-20 -2 -37 1 -37 6 0 6 7 46 15 90 22 113 22 148 0 172 -24 26
-84 27 -117 0 -33 -25 -43 -54 -64 -172 l-16 -98 -37 0 -37 0 28 168 c16 92
31 173 34 180 2 8 16 12 36 10 27 -2 33 -7 31 -25z m975 7 c45 -28 76 -97 67
-151 l-7 -39 -144 0 c-135 0 -144 -1 -144 -19 0 -29 56 -71 93 -71 18 0 47 9
66 21 23 14 42 18 62 14 42 -10 43 -21 4 -51 -73 -55 -151 -67 -221 -33 -78
37 -105 140 -59 228 20 39 73 91 110 107 47 21 134 17 173 -6z m292 0 l0 -20
37 20 c21 11 51 20 66 20 27 0 28 -2 22 -32 -10 -43 -13 -48 -29 -42 -21 8
-83 -22 -100 -48 -9 -13 -23 -62 -31 -108 -25 -139 -21 -130 -60 -130 -19 0
-35 2 -35 6 0 6 48 289 56 327 5 23 10 27 40 27 27 0 34 -4 34 -20z m316 -5
l-6 -25 36 25 c61 41 166 28 194 -24 14 -27 12 -89 -8 -206 l-17 -100 -38 -3
c-20 -2 -37 0 -37 5 0 4 9 55 19 112 11 57 17 111 14 120 -27 76 -140 65 -171
-16 -6 -15 -18 -72 -28 -125 l-16 -98 -37 0 -37 0 28 168 c16 92 31 173 33
180 3 6 20 12 41 12 34 0 36 -2 30 -25z m652 1 c19 -16 20 -16 25 4 4 14 13
20 35 20 39 0 43 -7 32 -56 -4 -21 -18 -99 -30 -171 l-23 -133 -38 0 c-31 0
-37 3 -32 16 5 15 3 15 -24 0 -176 -90 -314 83 -200 251 45 66 104 96 179 91
36 -3 64 -11 76 -22z m632 17 c0 -6 -49 -291 -56 -325 -5 -24 -10 -28 -40 -28
-41 0 -41 -8 -9 174 36 201 29 184 70 184 19 0 35 -2 35 -5z m407 -13 c49 -30
68 -65 67 -129 -1 -134 -123 -238 -253 -216 -161 27 -160 264 1 344 56 28 141
28 185 1z m303 0 c0 -19 1 -19 35 2 28 16 47 19 90 16 105 -9 122 -50 91 -229
l-21 -124 -38 -3 c-38 -3 -39 -3 -33 25 37 184 39 205 18 232 -34 46 -113 39
-147 -13 -11 -16 -55 -211 -55 -243 0 -2 -16 -3 -35 -3 -24 0 -35 5 -35 15 0
17 49 303 56 328 4 12 16 17 40 17 27 0 34 -4 34 -20z m648 -4 c19 -16 20 -16
25 4 4 15 13 20 41 20 20 0 36 -1 36 -3 0 -1 -13 -79 -30 -172 -16 -94 -30
-173 -30 -177 0 -5 -18 -8 -40 -8 -31 0 -38 3 -34 15 5 12 -2 11 -37 -5 -142
-64 -261 43 -215 193 32 104 108 161 208 154 36 -2 64 -10 76 -21z m1450 -19
c35 -35 37 -41 37 -100 l0 -62 -148 -3 c-148 -3 -148 -3 -142 -25 19 -62 98
-85 161 -48 26 15 45 20 65 16 36 -8 36 -14 1 -48 -85 -81 -240 -69 -287 23
-19 36 -19 110 -2 153 39 91 116 140 215 134 57 -3 66 -6 100 -40z m432 28
c32 -18 40 -18 40 -1 0 9 12 14 35 14 20 0 35 -5 35 -12 0 -12 -46 -283 -55
-323 -4 -19 -12 -23 -40 -23 -24 0 -35 5 -35 15 0 11 -8 11 -42 -5 -114 -52
-220 11 -220 129 1 86 56 175 127 207 39 17 124 17 155 -1z m330 -5 c0 -20 0
-20 33 0 47 29 118 27 154 -4 l28 -24 28 20 c32 23 101 34 142 24 15 -4 38
-19 51 -33 33 -36 32 -71 -7 -270 -10 -52 -11 -53 -45 -53 -40 0 -40 -1 -19
107 28 144 17 183 -51 183 -61 0 -88 -38 -108 -150 -26 -150 -22 -140 -61
-140 -19 0 -35 3 -35 8 0 4 9 57 19 117 19 110 17 138 -13 157 -19 13 -71 9
-94 -8 -32 -22 -39 -40 -57 -145 -22 -132 -21 -129 -61 -129 -19 0 -34 3 -34
8 0 4 14 83 30 177 17 93 30 171 30 172 0 2 16 3 35 3 28 0 35 -4 35 -20z"/>
<path d="M6096 4349 c-14 -11 -31 -29 -36 -40 -10 -18 -6 -19 95 -19 116 0
128 8 80 55 -32 33 -100 35 -139 4z"/>
<path d="M7375 4350 c-94 -61 -82 -200 17 -200 76 0 128 53 128 129 0 80 -76
117 -145 71z"/>
<path d="M8411 4353 c-69 -34 -93 -126 -48 -179 20 -23 31 -27 67 -26 51 2 84
21 110 65 29 47 26 93 -9 128 -34 33 -69 37 -120 12z"/>
<path d="M9390 4363 c-23 -9 -60 -45 -76 -75 -35 -67 1 -138 71 -138 76 0 128
54 128 134 0 63 -60 102 -123 79z"/>
<path d="M10780 4353 c-27 -18 -49 -43 -50 -55 0 -5 47 -8 105 -8 58 0 105 4
105 9 0 5 -12 23 -26 40 -21 26 -33 31 -68 31 -23 0 -53 -8 -66 -17z"/>
<path d="M11275 4358 c-67 -37 -96 -103 -71 -162 43 -103 206 -32 206 89 0 59
-81 103 -135 73z"/>
</g>
</svg>
