<svg xmlns="http://www.w3.org/2000/svg" xmlns:xlink="http://www.w3.org/1999/xlink" version="1.1" id="layer" x="0px" y="0px" viewBox="0 0 652 652" style="enable-background:new 0 0 652 652;" xml:space="preserve">
<style type="text/css">
	.st0{fill:#ffffff;}
</style>
<path class="st0" d="M73.9,342.2H60.3l10.6-41.4h22.8c8.4,0,18.6,1.9,16.5,10.7c-1.6,6.2-8.1,9.5-15.2,10.1v0.3  c8.7,0.2,9.5,3.9,8.7,10.4c-0.5,3.3-0.6,6.7-0.3,10.1H88.4c0-2.9,0.3-5.9,0.8-8.8c0.8-5,0.9-7-6.1-7H78L73.9,342.2z M85.4,318.4  c4.3,0,8.7-0.5,9.8-4.8s-3.1-4.8-7.4-4.8h-5.3l-2.5,9.5h5.4V318.4z" fill="#000000"/>
<path class="st0" d="M104.3,342.2l30-41.4h16.8l9,41.4h-15.5l-1.2-8.1h-20l-5.3,8.1H104.3z M142.1,326.2l-2-17.4h-0.2l-11,17.2  L142.1,326.2z" fill="#000000"/>
<path class="st0" d="M163.2,342.2l10.4-41.4h13.7l-10.4,41.4C176.8,342.2,163.2,342.2,163.2,342.2z" fill="#000000"/>
<path class="st0" d="M193.1,300.7h19.2l8.7,30.9l0.2-0.2l7.8-30.7h12.3l-10.6,41.4h-18.9l-8.7-31.8h0l-8.1,31.8h-12.3L193.1,300.7z" fill="#000000"/>
<path class="st0" d="M236.7,342.2l10.6-41.4h13.7l-10.6,41.4H236.7z" fill="#000000"/>
<path class="st0" d="M266.8,300.7h19.2l8.7,30.9l0.2-0.2l7.8-30.7h12.3l-10.6,41.4h-18.9l-8.7-31.8h-0.2l-8.1,31.8h-12.3  L266.8,300.7z" fill="#000000"/>
<path class="st0" d="M349.4,326.6h-9.9l2-8.1h23.7l-5.7,22.3c-11.5,1.4-13.8,2.3-25.6,2.3c-15.4-0.5-22.7-8.5-19.2-21.6  c3.4-13,14.7-21.1,30.3-21.6c12.1-0.3,24.2,1.2,21.4,13.2h-13.7c0.3-4-3.1-5.3-7.6-5.3c-9.2,0-14.3,6.8-16,13.5  c-2,8.2,1.4,13.5,11.2,13.5c2.5,0,4.8-0.3,7.3-0.6L349.4,326.6z" fill="#000000"/>
<path class="st0" d="M365.1,342.2l10.6-41.4h22.7c12.1,0,19.2,3.3,16.8,13.3c-2.5,10.1-11.3,13.3-23.4,13.3h-9l-3.7,14.7H365.1z   M391.6,319.4c5.4-0.2,8.2-2.2,9-5.3c0.8-3.1-0.9-5.1-6.4-5.3h-7l-2.6,10.6H391.6z" fill="#000000"/>
<path class="st0" d="M411.9,342.2l10.6-41.4h37.7l-2,8.1h-24.1l-2.2,8.5h22l-2,8.1h-22l-2.2,8.8h24.1l-2,8.1h-37.9V342.2z" fill="#000000"/>
<path class="st0" d="M451.7,342.2l30.1-41.4h16.8l9,41.4H492l-1.2-8.1h-20l-5.3,8.1H451.7z M489.4,326.2l-1.9-17.2h-0.2l-11.2,17.2  H489.4z" fill="#000000"/>
<path class="st0" d="M549.8,300.7h16.3L544.3,319l12.6,23.1H540l-10.7-22h-0.2l-5.6,22h-13.7l10.6-41.4h13.7l-4.7,18.2h0.2  L549.8,300.7z" fill="#000000"/>
<path class="st0" d="M589.3,313c0.5-1.2,0.2-2.8-0.8-3.7c-1.4-1.1-3.3-1.6-5-1.4c-3.1,0-6.4,1.7-6.8,3.7c-0.8,3.1,3.4,4,6.8,4.8  c7.8,1.9,19.7,2.5,16.9,13.7c-2.2,8.7-13.5,12.9-25,12.9s-21-2.8-18.3-14.1H571c-1.1,3.9,1.9,6.1,6.8,6.1c3.1,0,7.6-1.4,8.2-4.2  c1.4-5.6-9-4.3-18.8-8.4c-4.5-1.9-6.1-5.6-5-10.1c3.1-9.8,14-12.6,24.4-12.6s19.9,3.1,16.6,13L589.3,313z" fill="#000000"/>
<polygon class="st0" points="21,308.8 23,300.7 39,300.7 52.7,300.7 67.4,300.7 65.4,308.8 50.6,308.8 42.1,342.2 28.4,342.2   37,308.8 " fill="#000000"/>
<path class="st0" d="M612,302h-2.2l-1.2,4.7H607l1.2-4.7h-2.2l0.3-1.1h5.9L612,302z M619.8,306.6h-1.6l1.2-4.7l0,0l-3.3,4.7h-0.9  l-0.8-4.7l0,0l-1.2,4.7h-1.6l1.4-5.7h2.5l0.6,3.4l2.3-3.4h2.5L619.8,306.6z" fill="#000000"/>
</svg>