<svg width="167" height="20" viewBox="0 0 167 20" fill="none" xmlns="http://www.w3.org/2000/svg"><path fill-rule="evenodd" clip-rule="evenodd" d="M160.427 6.5304C160.427 5.88138 161.024 5.45981 161.937 5.45981C162.973 5.45981 163.798 6.03824 163.973 6.95197H166.676C166.396 4.47746 164.71 3.09119 161.99 3.09119C159.622 3.09119 157.655 4.5304 157.655 6.67158C157.655 9.33043 159.867 9.94884 161.674 10.4539C162.921 10.8026 163.974 11.0972 163.974 11.9716C163.974 12.8833 163.22 13.2873 162.255 13.2873C160.833 13.2873 160.008 12.4971 159.833 11.199H157.129C157.357 13.9363 159.235 15.6579 162.255 15.6579C164.8 15.6579 166.767 14.2363 166.767 11.7971C166.767 8.89672 164.411 8.29981 162.572 7.83388C161.395 7.53564 160.429 7.29107 160.429 6.5304H160.427ZM102.218 11.0255H102.22V11.0274L102.218 11.0255ZM102.22 11.0255H105.553C105.394 12.3588 104.237 13.3078 102.657 13.3078C100.551 13.3078 99.1647 11.7804 99.1647 9.37647C99.1647 6.97255 100.551 5.4451 102.553 5.4451C104.01 5.4451 105.045 6.30588 105.239 7.53333H108.029C107.784 4.91764 105.694 3.09215 102.553 3.09215C98.8667 3.09215 96.3745 5.56666 96.3745 9.37647C96.3745 13.449 99.1117 15.6608 102.29 15.6608C103.888 15.6608 105.08 15.0471 105.573 14.2922V15.5216H108.135V8.85098H102.22V11.0255ZM58.4588 3.23138H61.249V15.5177H58.4588V3.23138ZM78.0117 3.23138H80.8019V15.5177H78.0117V3.23138ZM72.1843 11.7784C72.1843 11.7784 72.1137 10.5157 72.1137 8.93531V3.23139H74.8863V15.5177H71.5157L68.251 9.54904C67.5137 8.14511 67.0569 6.96864 67.0569 6.96864C67.0569 6.96864 67.1451 8.23139 67.1451 9.81178V15.5157H64.3549V3.22943H67.7255L71.0078 9.19806C71.7451 10.602 72.1843 11.7784 72.1843 11.7784ZM91.6686 8.93531C91.6686 10.5157 91.7392 11.7784 91.7392 11.7784C91.7392 11.7784 91.3 10.602 90.5627 9.19806L87.2804 3.22943H83.9098V15.5157H86.7V9.81178C86.7 8.23139 86.6118 6.96864 86.6118 6.96864C86.6118 6.96864 87.0686 8.14511 87.8059 9.54904L91.0706 15.5177H94.4412V3.23139H91.6686V8.93531ZM130.471 10.3412H125.837V13.149H131.682V15.5176H123.047V3.23137H131.594V5.60196H125.837V7.97058H130.471V10.3412ZM132.665 15.5176L137.333 3.23137H140.422L145.073 15.5176H142.088L141.159 13.0431H136.49L135.561 15.5176H132.665ZM138.825 6.6549L137.351 10.6745H140.318L138.825 6.6549ZM156.853 3.23235H153.184L148.973 7.76176V3.23235H146.18V15.5186H148.973V11.5343L150.288 10.148L153.869 15.5186H157.257L152.149 8.18333L156.853 3.23235ZM112.216 3.23137H117.341C119.869 3.23137 121.502 4.72549 121.502 7.05882C121.502 9.39215 119.869 10.9196 117.341 10.9196H114.988V15.5176H112.216V3.23137ZM114.99 8.55098H117.025C118.078 8.55098 118.727 7.9549 118.727 7.05882C118.727 6.16274 118.078 5.60196 117.025 5.60196H114.99V8.55098ZM23.7216 5.60196H27.3196V15.5176H30.1118V5.60196H33.7098V3.23137H23.7216V5.60196ZM45.1706 14.9196L49.6118 3.23137H52.7L57.351 15.5176H54.3667L53.4372 13.0431H48.7686L47.8392 15.5176H42.3098L39.6588 10.7078H38.1137V15.5176H35.3235V3.23137H40.2392C42.6255 3.23137 44.2235 4.70588 44.2235 6.97059C44.2235 8.30392 43.5392 9.49804 42.3804 10.1647L45.1706 14.9196ZM38.1137 8.33922H39.7471C40.8 8.33922 41.4314 7.81177 41.4314 6.97059C41.4314 6.12941 40.8 5.60196 39.7471 5.60196H38.1137V8.33922ZM51.1039 6.6549L49.6294 10.6745H52.5961L51.1039 6.6549Z" fill="var(--semanticlayer-colors-primary-contrastText)"></path><path fill-rule="evenodd" clip-rule="evenodd" d="M8.95808 0H12.8313L6.00985 15.5105H2.13667L8.95808 0ZM2.21908 4.49883H6.09226L3.87318 9.5455H0L2.21908 4.49883ZM11.7395 4.49883L4.92272 20.0001H8.7959L15.6127 4.49883H11.7395ZM12.8484 12.8016L17.0505 3.24688H20.9237L16.7216 12.8016H12.8484Z" fill="var(--semanticlayer-colors-primary-light)"></path></svg> 